<svg xmlns="http://www.w3.org/2000/svg" width="189mm" height="173mm" viewBox="0 0 189 173">
<g transform="translate(8,8)"><rect x="-0.09" y="-0.09" width="173.18" height="157.18" rx="4.09" fill="none" stroke="#ff0000" stroke-width="0.15"/>
<rect x="17.79" y="14.94" width="64.92" height="86.12" rx="0.91" fill="none" stroke="#ff0000" stroke-width="0.15"/>
<rect x="99.29" y="14.94" width="64.92" height="86.12" rx="0.91" fill="none" stroke="#ff0000" stroke-width="0.15"/>
<circle cx="9.625" cy="9.5" r="1.61" fill="none" stroke="#ff0000" stroke-width="0.15"/>
<circle cx="81.875" cy="9.5" r="1.61" fill="none" stroke="#ff0000" stroke-width="0.15"/>
<circle cx="9.625" cy="106.5" r="1.61" fill="none" stroke="#ff0000" stroke-width="0.15"/>
<circle cx="81.875" cy="106.5" r="1.61" fill="none" stroke="#ff0000" stroke-width="0.15"/>
<circle cx="91.125" cy="9.5" r="1.61" fill="none" stroke="#ff0000" stroke-width="0.15"/>
<circle cx="163.375" cy="9.5" r="1.61" fill="none" stroke="#ff0000" stroke-width="0.15"/>
<circle cx="91.125" cy="106.5" r="1.61" fill="none" stroke="#ff0000" stroke-width="0.15"/>
<circle cx="163.375" cy="106.5" r="1.61" fill="none" stroke="#ff0000" stroke-width="0.15"/>
<polygon points="32.481,131.5 26.991,141.01 16.009,141.01 10.519,131.5 16.009,121.99 26.991,121.99" fill="none" stroke="#ff0000" stroke-width="0.15"/>
<rect x="6.5" y="6.5" width="78.5" height="103" fill="none" stroke="#0088ff" stroke-width="0.15" stroke-dasharray="1.5,1.5"/>
<rect x="88" y="6.5" width="78.5" height="103" fill="none" stroke="#0088ff" stroke-width="0.15" stroke-dasharray="1.5,1.5"/>
<rect x="7.25" y="12.5" width="77" height="91" fill="none" stroke="#0088ff" stroke-width="0.15" stroke-dasharray="1.5,1.5"/>
<rect x="88.75" y="12.5" width="77" height="91" fill="none" stroke="#0088ff" stroke-width="0.15" stroke-dasharray="1.5,1.5"/>
<rect x="18.45" y="15.6" width="63.6" height="84.8" fill="none" stroke="#00aa44" stroke-width="0.15" stroke-dasharray="1.5,1.5"/>
<rect x="99.95" y="15.6" width="63.6" height="84.8" fill="none" stroke="#00aa44" stroke-width="0.15" stroke-dasharray="1.5,1.5"/>
<rect x="96.5" y="116.5" width="65" height="30" fill="none" stroke="#0088ff" stroke-width="0.15" stroke-dasharray="1.5,1.5"/>
<circle cx="100" cy="120" r="1.4" fill="none" stroke="#0088ff" stroke-width="0.15" stroke-dasharray="1.5,1.5"/>
<circle cx="100" cy="143" r="1.4" fill="none" stroke="#0088ff" stroke-width="0.15" stroke-dasharray="1.5,1.5"/>
<circle cx="158" cy="120" r="1.4" fill="none" stroke="#0088ff" stroke-width="0.15" stroke-dasharray="1.5,1.5"/>
<circle cx="158" cy="143" r="1.4" fill="none" stroke="#0088ff" stroke-width="0.15" stroke-dasharray="1.5,1.5"/>
<circle cx="21.5" cy="131.5" r="10" fill="none" stroke="#00aa44" stroke-width="0.15" stroke-dasharray="1.5,1.5"/>
<circle cx="22" cy="35" r="16" fill="none" stroke="#00aa44" stroke-width="0.15" stroke-dasharray="1.5,1.5"/>
<circle cx="151" cy="35" r="16" fill="none" stroke="#00aa44" stroke-width="0.15" stroke-dasharray="1.5,1.5"/>
<circle cx="34" cy="92.5" r="16" fill="none" stroke="#00aa44" stroke-width="0.15" stroke-dasharray="1.5,1.5"/>
<circle cx="139" cy="92.5" r="16" fill="none" stroke="#00aa44" stroke-width="0.15" stroke-dasharray="1.5,1.5"/>
<rect x="99.75" y="153.5" width="16" height="3.5" fill="none" stroke="#00aa44" stroke-width="0.15" stroke-dasharray="1.5,1.5"/>
<rect x="137.55" y="153.5" width="13.9" height="3.5" fill="none" stroke="#00aa44" stroke-width="0.15" stroke-dasharray="1.5,1.5"/>
<circle cx="171.25" cy="125.75" r="1.4" fill="none" stroke="#00aa44" stroke-width="0.15" stroke-dasharray="1.5,1.5"/>
<rect x="33.5" y="116.5" width="59" height="30" fill="none" stroke="#00aa44" stroke-width="0.15" stroke-dasharray="1.5,1.5"/>
<text x="45.75" y="5.5" font-size="3.5" font-family="sans-serif" fill="#666666" text-anchor="middle">tens</text>
<text x="127.25" y="5.5" font-size="3.5" font-family="sans-serif" fill="#666666" text-anchor="middle">ones</text>
<text x="129" y="151.5" font-size="3.5" font-family="sans-serif" fill="#666666" text-anchor="middle">pi + pisugar</text>
<text x="21.5" y="146.5" font-size="3.5" font-family="sans-serif" fill="#666666" text-anchor="middle">button</text>
<text x="144.5" y="161" font-size="3.5" font-family="sans-serif" fill="#666666" text-anchor="middle">leds</text>
<text x="107.75" y="165" font-size="3.5" font-family="sans-serif" fill="#666666" text-anchor="middle">usb-c</text>
<text x="179" y="126.75" font-size="3.5" font-family="sans-serif" fill="#666666" text-anchor="middle">pwr</text>
<text x="63" y="131.5" font-size="3.5" font-family="sans-serif" fill="#666666" text-anchor="middle">battery</text></g>
</svg>
