<svg xmlns="http://www.w3.org/2000/svg" width="188.4mm" height="170.4mm" viewBox="0 0 188.4 170.4">
<g transform="translate(8,8)"><rect x="-0.09" y="-0.09" width="172.58" height="154.58" rx="4.09" fill="none" stroke="#ff0000" stroke-width="0.15"/>
<rect x="12.99" y="14.64" width="64.92" height="86.12" rx="0.91" fill="none" stroke="#ff0000" stroke-width="0.15"/>
<rect x="94.49" y="14.64" width="64.92" height="86.12" rx="0.91" fill="none" stroke="#ff0000" stroke-width="0.15"/>
<circle cx="8.95" cy="8.95" r="1.61" fill="none" stroke="#ff0000" stroke-width="0.15"/>
<circle cx="81.95" cy="8.95" r="1.61" fill="none" stroke="#ff0000" stroke-width="0.15"/>
<circle cx="8.95" cy="106.45" r="1.61" fill="none" stroke="#ff0000" stroke-width="0.15"/>
<circle cx="81.95" cy="106.45" r="1.61" fill="none" stroke="#ff0000" stroke-width="0.15"/>
<circle cx="90.45" cy="8.95" r="1.61" fill="none" stroke="#ff0000" stroke-width="0.15"/>
<circle cx="163.45" cy="8.95" r="1.61" fill="none" stroke="#ff0000" stroke-width="0.15"/>
<circle cx="90.45" cy="106.45" r="1.61" fill="none" stroke="#ff0000" stroke-width="0.15"/>
<circle cx="163.45" cy="106.45" r="1.61" fill="none" stroke="#ff0000" stroke-width="0.15"/>
<circle cx="151.2" cy="130.2" r="8.01" fill="none" stroke="#ff0000" stroke-width="0.15"/>
<rect x="20.79" y="118.29" width="21.82" height="3.82" rx="1.91" fill="none" stroke="#ff0000" stroke-width="0.15"/>
<circle cx="63.7" cy="120.2" r="0.71" fill="none" stroke="#ff0000" stroke-width="0.15"/>
<rect x="6.2" y="6.2" width="78.5" height="103" fill="none" stroke="#0088ff" stroke-width="0.15" stroke-dasharray="1.5,1.5"/>
<rect x="87.7" y="6.2" width="78.5" height="103" fill="none" stroke="#0088ff" stroke-width="0.15" stroke-dasharray="1.5,1.5"/>
<rect x="6.95" y="12.2" width="77" height="91" fill="none" stroke="#0088ff" stroke-width="0.15" stroke-dasharray="1.5,1.5"/>
<rect x="88.45" y="12.2" width="77" height="91" fill="none" stroke="#0088ff" stroke-width="0.15" stroke-dasharray="1.5,1.5"/>
<rect x="13.65" y="15.3" width="63.6" height="84.8" fill="none" stroke="#00aa44" stroke-width="0.15" stroke-dasharray="1.5,1.5"/>
<rect x="95.15" y="15.3" width="63.6" height="84.8" fill="none" stroke="#00aa44" stroke-width="0.15" stroke-dasharray="1.5,1.5"/>
<rect x="11.2" y="115.2" width="65" height="30" fill="none" stroke="#0088ff" stroke-width="0.15" stroke-dasharray="1.5,1.5"/>
<circle cx="14.7" cy="118.7" r="1.4" fill="none" stroke="#0088ff" stroke-width="0.15" stroke-dasharray="1.5,1.5"/>
<circle cx="14.7" cy="141.7" r="1.4" fill="none" stroke="#0088ff" stroke-width="0.15" stroke-dasharray="1.5,1.5"/>
<circle cx="72.7" cy="118.7" r="1.4" fill="none" stroke="#0088ff" stroke-width="0.15" stroke-dasharray="1.5,1.5"/>
<circle cx="72.7" cy="141.7" r="1.4" fill="none" stroke="#0088ff" stroke-width="0.15" stroke-dasharray="1.5,1.5"/>
<circle cx="151.2" cy="130.2" r="10" fill="none" stroke="#00aa44" stroke-width="0.15" stroke-dasharray="1.5,1.5"/>
<circle cx="22" cy="35" r="16" fill="none" stroke="#00aa44" stroke-width="0.15" stroke-dasharray="1.5,1.5"/>
<circle cx="150.4" cy="35" r="16" fill="none" stroke="#00aa44" stroke-width="0.15" stroke-dasharray="1.5,1.5"/>
<circle cx="34" cy="92.2" r="16" fill="none" stroke="#00aa44" stroke-width="0.15" stroke-dasharray="1.5,1.5"/>
<circle cx="138.4" cy="92.2" r="16" fill="none" stroke="#00aa44" stroke-width="0.15" stroke-dasharray="1.5,1.5"/>
<rect x="38.2" y="151.2" width="11" height="3.2" fill="none" stroke="#00aa44" stroke-width="0.15" stroke-dasharray="1.5,1.5"/>
<text x="45.45" y="5.2" font-size="3.5" font-family="sans-serif" fill="#666666" text-anchor="middle">tens</text>
<text x="126.95" y="5.2" font-size="3.5" font-family="sans-serif" fill="#666666" text-anchor="middle">ones</text>
<text x="43.7" y="150.2" font-size="3.5" font-family="sans-serif" fill="#666666" text-anchor="middle">pi + pisugar</text>
<text x="151.2" y="145.2" font-size="3.5" font-family="sans-serif" fill="#666666" text-anchor="middle">button</text>
<text x="43.7" y="158.4" font-size="3.5" font-family="sans-serif" fill="#666666" text-anchor="middle">usb-c</text></g>
</svg>
