<svg xmlns="http://www.w3.org/2000/svg" width="495mm" height="279mm" viewBox="0 0 495 279">
<g transform="translate(0,0) translate(173,0) scale(-1,1)">
<rect x="-0.135" y="-0.135" width="173.27" height="157.27" rx="4.135" fill="none" stroke="#ff0000" stroke-width="0.15"/>
<circle cx="9.625" cy="9.5" r="1.565" fill="none" stroke="#ff0000" stroke-width="0.15"/>
<circle cx="81.875" cy="9.5" r="1.565" fill="none" stroke="#ff0000" stroke-width="0.15"/>
<circle cx="9.625" cy="106.5" r="1.565" fill="none" stroke="#ff0000" stroke-width="0.15"/>
<circle cx="81.875" cy="106.5" r="1.565" fill="none" stroke="#ff0000" stroke-width="0.15"/>
<circle cx="91.125" cy="9.5" r="1.565" fill="none" stroke="#ff0000" stroke-width="0.15"/>
<circle cx="163.375" cy="9.5" r="1.565" fill="none" stroke="#ff0000" stroke-width="0.15"/>
<circle cx="91.125" cy="106.5" r="1.565" fill="none" stroke="#ff0000" stroke-width="0.15"/>
<circle cx="163.375" cy="106.5" r="1.565" fill="none" stroke="#ff0000" stroke-width="0.15"/>
<circle cx="100" cy="120" r="1.265" fill="none" stroke="#ff0000" stroke-width="0.15"/>
<circle cx="100" cy="143" r="1.265" fill="none" stroke="#ff0000" stroke-width="0.15"/>
<circle cx="158" cy="120" r="1.265" fill="none" stroke="#ff0000" stroke-width="0.15"/>
<circle cx="158" cy="143" r="1.265" fill="none" stroke="#ff0000" stroke-width="0.15"/>
<rect x="42.985" y="-0.015" width="12.03" height="3.53" fill="none" stroke="#ff0000" stroke-width="0.15"/>
<rect x="117.985" y="-0.015" width="12.03" height="3.53" fill="none" stroke="#ff0000" stroke-width="0.15"/>
<rect x="42.985" y="153.485" width="12.03" height="3.53" fill="none" stroke="#ff0000" stroke-width="0.15"/>
<rect x="117.985" y="153.485" width="12.03" height="3.53" fill="none" stroke="#ff0000" stroke-width="0.15"/>
<rect x="-0.015" y="38.985" width="3.53" height="12.03" fill="none" stroke="#ff0000" stroke-width="0.15"/>
<rect x="-0.015" y="105.985" width="3.53" height="12.03" fill="none" stroke="#ff0000" stroke-width="0.15"/>
<rect x="169.485" y="38.985" width="3.53" height="12.03" fill="none" stroke="#ff0000" stroke-width="0.15"/>
<rect x="169.485" y="105.985" width="3.53" height="12.03" fill="none" stroke="#ff0000" stroke-width="0.15"/>
</g>
<g transform="translate(178,0) translate(173,0) scale(-1,1)">
<rect x="-0.135" y="-0.135" width="173.27" height="157.27" rx="4.135" fill="none" stroke="#ff0000" stroke-width="0.15"/>
<circle cx="22" cy="35" r="16.015" fill="none" stroke="#ff0000" stroke-width="0.15"/>
<circle cx="151" cy="35" r="16.015" fill="none" stroke="#ff0000" stroke-width="0.15"/>
<circle cx="34" cy="92.5" r="16.015" fill="none" stroke="#ff0000" stroke-width="0.15"/>
<circle cx="139" cy="92.5" r="16.015" fill="none" stroke="#ff0000" stroke-width="0.15"/>
<circle cx="9.625" cy="9.5" r="3.115" fill="none" stroke="#ff0000" stroke-width="0.15"/>
<circle cx="81.875" cy="9.5" r="3.115" fill="none" stroke="#ff0000" stroke-width="0.15"/>
<circle cx="9.625" cy="106.5" r="3.115" fill="none" stroke="#ff0000" stroke-width="0.15"/>
<circle cx="81.875" cy="106.5" r="3.115" fill="none" stroke="#ff0000" stroke-width="0.15"/>
<circle cx="91.125" cy="9.5" r="3.115" fill="none" stroke="#ff0000" stroke-width="0.15"/>
<circle cx="163.375" cy="9.5" r="3.115" fill="none" stroke="#ff0000" stroke-width="0.15"/>
<circle cx="91.125" cy="106.5" r="3.115" fill="none" stroke="#ff0000" stroke-width="0.15"/>
<circle cx="163.375" cy="106.5" r="3.115" fill="none" stroke="#ff0000" stroke-width="0.15"/>
<circle cx="100" cy="120" r="3.115" fill="none" stroke="#ff0000" stroke-width="0.15"/>
<circle cx="100" cy="143" r="3.115" fill="none" stroke="#ff0000" stroke-width="0.15"/>
<circle cx="158" cy="120" r="3.115" fill="none" stroke="#ff0000" stroke-width="0.15"/>
<circle cx="158" cy="143" r="3.115" fill="none" stroke="#ff0000" stroke-width="0.15"/>
</g>
<g transform="translate(0,162)">
<polygon points="0,0 173,0 173,11.333 169.5,11.333 169.5,22.667 173,22.667 173,34 130,34 130,37.5 118,37.5 118,34 55,34 55,37.5 43,37.5 43,34 0,34 0,22.667 3.5,22.667 3.5,11.333 0,11.333" fill="none" stroke="#ff0000" stroke-width="0.15"/>
</g>
<g transform="translate(178,162)">
<polygon points="0,0 173,0 173,11.333 169.5,11.333 169.5,22.667 173,22.667 173,34 130,34 130,37.5 118,37.5 118,34 55,34 55,37.5 43,37.5 43,34 0,34 0,22.667 3.5,22.667 3.5,11.333 0,11.333" fill="none" stroke="#ff0000" stroke-width="0.15"/>
<rect x="101.385" y="3.835" width="14.23" height="8.73" rx="1.365" fill="none" stroke="#ff0000" stroke-width="0.15"/>
<rect x="137.06" y="6.76" width="10.88" height="2.88" fill="none" stroke="#ff0000" stroke-width="0.15"/>
</g>
<g transform="translate(0,204.5)">
<polygon points="3.5,0 153.5,0 153.5,11.333 157,11.333 157,22.667 153.5,22.667 153.5,34 118,34 118,37.5 106,37.5 106,34 51,34 51,37.5 39,37.5 39,34 3.5,34 3.5,22.667 0,22.667 0,11.333 3.5,11.333" fill="none" stroke="#ff0000" stroke-width="0.15"/>
</g>
<g transform="translate(162,204.5)">
<polygon points="3.5,0 153.5,0 153.5,11.333 157,11.333 157,22.667 153.5,22.667 153.5,34 118,34 118,37.5 106,37.5 106,34 51,34 51,37.5 39,37.5 39,34 3.5,34 3.5,22.667 0,22.667 0,11.333 3.5,11.333" fill="none" stroke="#ff0000" stroke-width="0.15"/>
<rect x="124.485" y="6.935" width="2.53" height="2.53" fill="none" stroke="#ff0000" stroke-width="0.15"/>
</g>
<g transform="translate(324,204.5)">
<rect x="-0.135" y="-0.135" width="62.27" height="4.27" fill="none" stroke="#ff0000" stroke-width="0.15"/>
<rect x="-0.135" y="5.865" width="62.27" height="4.27" fill="none" stroke="#ff0000" stroke-width="0.15"/>
<rect x="-0.135" y="11.865" width="33.27" height="4.27" fill="none" stroke="#ff0000" stroke-width="0.15"/>
</g>
<g transform="translate(391.27,204.5)">
<rect x="-0.135" y="-0.135" width="10.27" height="11.27" fill="none" stroke="#ff0000" stroke-width="0.15"/>
</g>
<g transform="translate(406.54,204.5)">
<rect x="-0.135" y="-0.135" width="11.27" height="2.92" fill="none" stroke="#ff0000" stroke-width="0.15"/>
</g>
</svg>
