<svg xmlns="http://www.w3.org/2000/svg" width="495mm" height="279mm" viewBox="0 0 495 279">
<g transform="translate(0,0)">
<polygon points="0,0 173,0 173,31 130,31 130,34.5 118,34.5 118,31 55,31 55,34.5 43,34.5 43,31 0,31" fill="none" stroke="#ff0000" stroke-width="0.15"/>
</g>
<g transform="translate(178,0)">
<polygon points="0,0 173,0 173,31 130,31 130,34.5 118,34.5 118,31 55,31 55,34.5 43,34.5 43,31 0,31" fill="none" stroke="#ff0000" stroke-width="0.15"/>
<rect x="123.59" y="1.54" width="10.82" height="5.32" rx="1.41" fill="none" stroke="#ff0000" stroke-width="0.15"/>
<rect x="95.09" y="2.79" width="23.82" height="2.82" rx="1.41" fill="none" stroke="#ff0000" stroke-width="0.15"/>
<circle cx="147" cy="4.2" r="0.81" fill="none" stroke="#ff0000" stroke-width="0.15"/>
</g>
<g transform="translate(0,39.5)">
<polygon points="0,0 150,0 150,31 114.5,31 114.5,34.5 102.5,34.5 102.5,31 47.5,31 47.5,34.5 35.5,34.5 35.5,31 0,31" fill="none" stroke="#ff0000" stroke-width="0.15"/>
</g>
<g transform="translate(155,39.5)">
<polygon points="0,0 150,0 150,31 114.5,31 114.5,34.5 102.5,34.5 102.5,31 47.5,31 47.5,34.5 35.5,34.5 35.5,31 0,31" fill="none" stroke="#ff0000" stroke-width="0.15"/>
</g>
<g transform="translate(310,39.5)">
<rect x="-0.09" y="-0.09" width="62.18" height="4.18" fill="none" stroke="#ff0000" stroke-width="0.15"/>
<rect x="-0.09" y="5.91" width="62.18" height="4.18" fill="none" stroke="#ff0000" stroke-width="0.15"/>
<rect x="-0.09" y="11.91" width="33.18" height="4.18" fill="none" stroke="#ff0000" stroke-width="0.15"/>
</g>
</svg>
