<svg xmlns="http://www.w3.org/2000/svg" width="495mm" height="279mm" viewBox="0 0 495 279">
<g transform="translate(0,0) translate(173,0) scale(-1,1)">
<rect x="-0.09" y="-0.09" width="173.18" height="157.18" rx="4.09" fill="none" stroke="#ff0000" stroke-width="0.15"/>
<circle cx="9.625" cy="9.5" r="1.61" fill="none" stroke="#ff0000" stroke-width="0.15"/>
<circle cx="81.875" cy="9.5" r="1.61" fill="none" stroke="#ff0000" stroke-width="0.15"/>
<circle cx="9.625" cy="106.5" r="1.61" fill="none" stroke="#ff0000" stroke-width="0.15"/>
<circle cx="81.875" cy="106.5" r="1.61" fill="none" stroke="#ff0000" stroke-width="0.15"/>
<circle cx="91.125" cy="9.5" r="1.61" fill="none" stroke="#ff0000" stroke-width="0.15"/>
<circle cx="163.375" cy="9.5" r="1.61" fill="none" stroke="#ff0000" stroke-width="0.15"/>
<circle cx="91.125" cy="106.5" r="1.61" fill="none" stroke="#ff0000" stroke-width="0.15"/>
<circle cx="163.375" cy="106.5" r="1.61" fill="none" stroke="#ff0000" stroke-width="0.15"/>
<circle cx="100" cy="120" r="1.31" fill="none" stroke="#ff0000" stroke-width="0.15"/>
<circle cx="100" cy="143" r="1.31" fill="none" stroke="#ff0000" stroke-width="0.15"/>
<circle cx="158" cy="120" r="1.31" fill="none" stroke="#ff0000" stroke-width="0.15"/>
<circle cx="158" cy="143" r="1.31" fill="none" stroke="#ff0000" stroke-width="0.15"/>
<rect x="42.94" y="-0.06" width="12.12" height="3.62" fill="none" stroke="#ff0000" stroke-width="0.15"/>
<rect x="117.94" y="-0.06" width="12.12" height="3.62" fill="none" stroke="#ff0000" stroke-width="0.15"/>
<rect x="42.94" y="153.44" width="12.12" height="3.62" fill="none" stroke="#ff0000" stroke-width="0.15"/>
<rect x="117.94" y="153.44" width="12.12" height="3.62" fill="none" stroke="#ff0000" stroke-width="0.15"/>
<rect x="-0.06" y="38.94" width="3.62" height="12.12" fill="none" stroke="#ff0000" stroke-width="0.15"/>
<rect x="-0.06" y="105.94" width="3.62" height="12.12" fill="none" stroke="#ff0000" stroke-width="0.15"/>
<rect x="169.44" y="38.94" width="3.62" height="12.12" fill="none" stroke="#ff0000" stroke-width="0.15"/>
<rect x="169.44" y="105.94" width="3.62" height="12.12" fill="none" stroke="#ff0000" stroke-width="0.15"/>
</g>
<g transform="translate(178,0) translate(173,0) scale(-1,1)">
<rect x="-0.09" y="-0.09" width="173.18" height="157.18" rx="4.09" fill="none" stroke="#ff0000" stroke-width="0.15"/>
<circle cx="22" cy="35" r="16.06" fill="none" stroke="#ff0000" stroke-width="0.15"/>
<circle cx="151" cy="35" r="16.06" fill="none" stroke="#ff0000" stroke-width="0.15"/>
<circle cx="34" cy="92.5" r="16.06" fill="none" stroke="#ff0000" stroke-width="0.15"/>
<circle cx="139" cy="92.5" r="16.06" fill="none" stroke="#ff0000" stroke-width="0.15"/>
<circle cx="9.625" cy="9.5" r="3.16" fill="none" stroke="#ff0000" stroke-width="0.15"/>
<circle cx="81.875" cy="9.5" r="3.16" fill="none" stroke="#ff0000" stroke-width="0.15"/>
<circle cx="9.625" cy="106.5" r="3.16" fill="none" stroke="#ff0000" stroke-width="0.15"/>
<circle cx="81.875" cy="106.5" r="3.16" fill="none" stroke="#ff0000" stroke-width="0.15"/>
<circle cx="91.125" cy="9.5" r="3.16" fill="none" stroke="#ff0000" stroke-width="0.15"/>
<circle cx="163.375" cy="9.5" r="3.16" fill="none" stroke="#ff0000" stroke-width="0.15"/>
<circle cx="91.125" cy="106.5" r="3.16" fill="none" stroke="#ff0000" stroke-width="0.15"/>
<circle cx="163.375" cy="106.5" r="3.16" fill="none" stroke="#ff0000" stroke-width="0.15"/>
<circle cx="100" cy="120" r="3.16" fill="none" stroke="#ff0000" stroke-width="0.15"/>
<circle cx="100" cy="143" r="3.16" fill="none" stroke="#ff0000" stroke-width="0.15"/>
<circle cx="158" cy="120" r="3.16" fill="none" stroke="#ff0000" stroke-width="0.15"/>
<circle cx="158" cy="143" r="3.16" fill="none" stroke="#ff0000" stroke-width="0.15"/>
</g>
<g transform="translate(0,162)">
<polygon points="0,0 173,0 173,11.067 169.5,11.067 169.5,22.133 173,22.133 173,33.2 130,33.2 130,36.7 118,36.7 118,33.2 55,33.2 55,36.7 43,36.7 43,33.2 0,33.2 0,22.133 3.5,22.133 3.5,11.067 0,11.067" fill="none" stroke="#ff0000" stroke-width="0.15"/>
</g>
<g transform="translate(178,162)">
<polygon points="0,0 99.75,0 99.75,10.5 115.75,10.5 115.75,0 173,0 173,11.067 169.5,11.067 169.5,22.133 173,22.133 173,33.2 130,33.2 130,36.7 118,36.7 118,33.2 55,33.2 55,36.7 43,36.7 43,33.2 0,33.2 0,22.133 3.5,22.133 3.5,11.067 0,11.067" fill="none" stroke="#ff0000" stroke-width="0.15"/>
<rect x="137.565" y="4.915" width="13.87" height="2.97" fill="none" stroke="#ff0000" stroke-width="0.15"/>
</g>
<g transform="translate(0,203.7)">
<polygon points="3.5,0 153.5,0 153.5,11.067 157,11.067 157,22.133 153.5,22.133 153.5,33.2 118,33.2 118,36.7 106,36.7 106,33.2 51,33.2 51,36.7 39,36.7 39,33.2 3.5,33.2 3.5,22.133 0,22.133 0,11.067 3.5,11.067" fill="none" stroke="#ff0000" stroke-width="0.15"/>
</g>
<g transform="translate(162,203.7)">
<polygon points="3.5,0 153.5,0 153.5,11.067 157,11.067 157,22.133 153.5,22.133 153.5,33.2 118,33.2 118,36.7 106,36.7 106,33.2 51,33.2 51,36.7 39,36.7 39,33.2 3.5,33.2 3.5,22.133 0,22.133 0,11.067 3.5,11.067" fill="none" stroke="#ff0000" stroke-width="0.15"/>
<rect x="124.165" y="4.815" width="3.17" height="3.17" fill="none" stroke="#ff0000" stroke-width="0.15"/>
</g>
<g transform="translate(324,203.7)">
<rect x="-0.09" y="-0.09" width="62.18" height="4.18" fill="none" stroke="#ff0000" stroke-width="0.15"/>
<rect x="-0.09" y="5.91" width="62.18" height="4.18" fill="none" stroke="#ff0000" stroke-width="0.15"/>
<rect x="-0.09" y="11.91" width="33.18" height="4.18" fill="none" stroke="#ff0000" stroke-width="0.15"/>
</g>
<g transform="translate(391.18,203.7)">
<rect x="-0.09" y="-0.09" width="10.18" height="14.08" fill="none" stroke="#ff0000" stroke-width="0.15"/>
</g>
<g transform="translate(406.36,203.7)">
<rect x="-0.09" y="-0.09" width="11.18" height="3.38" fill="none" stroke="#ff0000" stroke-width="0.15"/>
</g>
</svg>
