<svg xmlns="http://www.w3.org/2000/svg" width="495mm" height="279mm" viewBox="0 0 495 279">
<g transform="translate(0,0)">
<rect x="-0.09" y="-0.09" width="173.18" height="157.18" rx="4.09" fill="none" stroke="#ff0000" stroke-width="0.15"/>
<rect x="17.79" y="14.94" width="64.92" height="86.12" rx="0.91" fill="none" stroke="#ff0000" stroke-width="0.15"/>
<rect x="99.29" y="14.94" width="64.92" height="86.12" rx="0.91" fill="none" stroke="#ff0000" stroke-width="0.15"/>
<circle cx="9.625" cy="9.5" r="1.61" fill="none" stroke="#ff0000" stroke-width="0.15"/>
<circle cx="81.875" cy="9.5" r="1.61" fill="none" stroke="#ff0000" stroke-width="0.15"/>
<circle cx="9.625" cy="106.5" r="1.61" fill="none" stroke="#ff0000" stroke-width="0.15"/>
<circle cx="81.875" cy="106.5" r="1.61" fill="none" stroke="#ff0000" stroke-width="0.15"/>
<circle cx="91.125" cy="9.5" r="1.61" fill="none" stroke="#ff0000" stroke-width="0.15"/>
<circle cx="163.375" cy="9.5" r="1.61" fill="none" stroke="#ff0000" stroke-width="0.15"/>
<circle cx="91.125" cy="106.5" r="1.61" fill="none" stroke="#ff0000" stroke-width="0.15"/>
<circle cx="163.375" cy="106.5" r="1.61" fill="none" stroke="#ff0000" stroke-width="0.15"/>
<circle cx="151.5" cy="131.5" r="8.01" fill="none" stroke="#ff0000" stroke-width="0.15"/>
</g>
<g transform="translate(178,0)">
<rect x="-0.09" y="-0.09" width="173.18" height="157.18" rx="4.09" fill="none" stroke="#ff0000" stroke-width="0.15"/>
<circle cx="9.625" cy="9.5" r="1.61" fill="none" stroke="#ff0000" stroke-width="0.15"/>
<circle cx="81.875" cy="9.5" r="1.61" fill="none" stroke="#ff0000" stroke-width="0.15"/>
<circle cx="9.625" cy="106.5" r="1.61" fill="none" stroke="#ff0000" stroke-width="0.15"/>
<circle cx="81.875" cy="106.5" r="1.61" fill="none" stroke="#ff0000" stroke-width="0.15"/>
<circle cx="91.125" cy="9.5" r="1.61" fill="none" stroke="#ff0000" stroke-width="0.15"/>
<circle cx="163.375" cy="9.5" r="1.61" fill="none" stroke="#ff0000" stroke-width="0.15"/>
<circle cx="91.125" cy="106.5" r="1.61" fill="none" stroke="#ff0000" stroke-width="0.15"/>
<circle cx="163.375" cy="106.5" r="1.61" fill="none" stroke="#ff0000" stroke-width="0.15"/>
<circle cx="151.5" cy="131.5" r="8.01" fill="none" stroke="#ff0000" stroke-width="0.15"/>
</g>
</svg>
