<svg xmlns="http://www.w3.org/2000/svg" width="495mm" height="279mm" viewBox="0 0 495 279">
<g transform="translate(0,0) translate(173,0) scale(-1,1)">
<rect x="-0.09" y="-0.09" width="173.18" height="157.18" rx="4.09" fill="none" stroke="#ff0000" stroke-width="0.15"/>
<circle cx="9.625" cy="9.5" r="1.61" fill="none" stroke="#ff0000" stroke-width="0.15"/>
<circle cx="81.875" cy="9.5" r="1.61" fill="none" stroke="#ff0000" stroke-width="0.15"/>
<circle cx="9.625" cy="106.5" r="1.61" fill="none" stroke="#ff0000" stroke-width="0.15"/>
<circle cx="81.875" cy="106.5" r="1.61" fill="none" stroke="#ff0000" stroke-width="0.15"/>
<circle cx="91.125" cy="9.5" r="1.61" fill="none" stroke="#ff0000" stroke-width="0.15"/>
<circle cx="163.375" cy="9.5" r="1.61" fill="none" stroke="#ff0000" stroke-width="0.15"/>
<circle cx="91.125" cy="106.5" r="1.61" fill="none" stroke="#ff0000" stroke-width="0.15"/>
<circle cx="163.375" cy="106.5" r="1.61" fill="none" stroke="#ff0000" stroke-width="0.15"/>
<circle cx="100" cy="120" r="1.31" fill="none" stroke="#ff0000" stroke-width="0.15"/>
<circle cx="100" cy="143" r="1.31" fill="none" stroke="#ff0000" stroke-width="0.15"/>
<circle cx="158" cy="120" r="1.31" fill="none" stroke="#ff0000" stroke-width="0.15"/>
<circle cx="158" cy="143" r="1.31" fill="none" stroke="#ff0000" stroke-width="0.15"/>
<rect x="42.94" y="-0.06" width="12.12" height="3.62" fill="none" stroke="#ff0000" stroke-width="0.15"/>
<rect x="117.94" y="-0.06" width="12.12" height="3.62" fill="none" stroke="#ff0000" stroke-width="0.15"/>
<rect x="42.94" y="153.44" width="12.12" height="3.62" fill="none" stroke="#ff0000" stroke-width="0.15"/>
<rect x="117.94" y="153.44" width="12.12" height="3.62" fill="none" stroke="#ff0000" stroke-width="0.15"/>
<rect x="-0.06" y="38.94" width="3.62" height="12.12" fill="none" stroke="#ff0000" stroke-width="0.15"/>
<rect x="-0.06" y="105.94" width="3.62" height="12.12" fill="none" stroke="#ff0000" stroke-width="0.15"/>
<rect x="169.44" y="38.94" width="3.62" height="12.12" fill="none" stroke="#ff0000" stroke-width="0.15"/>
<rect x="169.44" y="105.94" width="3.62" height="12.12" fill="none" stroke="#ff0000" stroke-width="0.15"/>
</g>
<g transform="translate(178,0) translate(173,0) scale(-1,1)">
<rect x="-0.09" y="-0.09" width="173.18" height="157.18" rx="4.09" fill="none" stroke="#ff0000" stroke-width="0.15"/>
<circle cx="22" cy="35" r="16.06" fill="none" stroke="#ff0000" stroke-width="0.15"/>
<circle cx="151" cy="35" r="16.06" fill="none" stroke="#ff0000" stroke-width="0.15"/>
<circle cx="34" cy="92.5" r="16.06" fill="none" stroke="#ff0000" stroke-width="0.15"/>
<circle cx="139" cy="92.5" r="16.06" fill="none" stroke="#ff0000" stroke-width="0.15"/>
<circle cx="9.625" cy="9.5" r="3.16" fill="none" stroke="#ff0000" stroke-width="0.15"/>
<circle cx="81.875" cy="9.5" r="3.16" fill="none" stroke="#ff0000" stroke-width="0.15"/>
<circle cx="9.625" cy="106.5" r="3.16" fill="none" stroke="#ff0000" stroke-width="0.15"/>
<circle cx="81.875" cy="106.5" r="3.16" fill="none" stroke="#ff0000" stroke-width="0.15"/>
<circle cx="91.125" cy="9.5" r="3.16" fill="none" stroke="#ff0000" stroke-width="0.15"/>
<circle cx="163.375" cy="9.5" r="3.16" fill="none" stroke="#ff0000" stroke-width="0.15"/>
<circle cx="91.125" cy="106.5" r="3.16" fill="none" stroke="#ff0000" stroke-width="0.15"/>
<circle cx="163.375" cy="106.5" r="3.16" fill="none" stroke="#ff0000" stroke-width="0.15"/>
<circle cx="100" cy="120" r="3.16" fill="none" stroke="#ff0000" stroke-width="0.15"/>
<circle cx="100" cy="143" r="3.16" fill="none" stroke="#ff0000" stroke-width="0.15"/>
<circle cx="158" cy="120" r="3.16" fill="none" stroke="#ff0000" stroke-width="0.15"/>
<circle cx="158" cy="143" r="3.16" fill="none" stroke="#ff0000" stroke-width="0.15"/>
</g>
<g transform="translate(0,162)">
<polygon points="0,0 173,0 173,11.5 169.5,11.5 169.5,23 173,23 173,34.5 130,34.5 130,38 118,38 118,34.5 55,34.5 55,38 43,38 43,34.5 0,34.5 0,23 3.5,23 3.5,11.5 0,11.5" fill="none" stroke="#ff0000" stroke-width="0.15"/>
</g>
<g transform="translate(178,162)">
<polygon points="0,0 100.5,0 100.5,13 115,13 115,0 173,0 173,11.5 169.5,11.5 169.5,23 173,23 173,34.5 130,34.5 130,38 118,38 118,34.5 55,34.5 55,38 43,38 43,34.5 0,34.5 0,23 3.5,23 3.5,11.5 0,11.5" fill="none" stroke="#ff0000" stroke-width="0.15"/>
<rect x="137.565" y="6.215" width="13.87" height="2.97" fill="none" stroke="#ff0000" stroke-width="0.15"/>
</g>
<g transform="translate(0,205)">
<polygon points="3.5,0 153.5,0 153.5,11.5 157,11.5 157,23 153.5,23 153.5,34.5 118,34.5 118,38 106,38 106,34.5 51,34.5 51,38 39,38 39,34.5 3.5,34.5 3.5,23 0,23 0,11.5 3.5,11.5" fill="none" stroke="#ff0000" stroke-width="0.15"/>
</g>
<g transform="translate(162,205)">
<polygon points="3.5,0 153.5,0 153.5,11.5 157,11.5 157,23 153.5,23 153.5,34.5 118,34.5 118,38 106,38 106,34.5 51,34.5 51,38 39,38 39,34.5 3.5,34.5 3.5,23 0,23 0,11.5 3.5,11.5" fill="none" stroke="#ff0000" stroke-width="0.15"/>
<rect x="124.44" y="6.39" width="2.62" height="2.62" fill="none" stroke="#ff0000" stroke-width="0.15"/>
</g>
<g transform="translate(324,205)">
<rect x="-0.09" y="-0.09" width="62.18" height="4.18" fill="none" stroke="#ff0000" stroke-width="0.15"/>
<rect x="-0.09" y="5.91" width="62.18" height="4.18" fill="none" stroke="#ff0000" stroke-width="0.15"/>
<rect x="-0.09" y="11.91" width="33.18" height="4.18" fill="none" stroke="#ff0000" stroke-width="0.15"/>
</g>
<g transform="translate(391.18,205)">
<rect x="-0.09" y="-0.09" width="10.18" height="14.08" fill="none" stroke="#ff0000" stroke-width="0.15"/>
</g>
<g transform="translate(406.36,205)">
<rect x="-0.09" y="-0.09" width="11.18" height="2.83" fill="none" stroke="#ff0000" stroke-width="0.15"/>
</g>
</svg>
