<svg xmlns="http://www.w3.org/2000/svg" width="495mm" height="279mm" viewBox="0 0 495 279">
<g transform="translate(0,0) translate(173,0) scale(-1,1)">
<rect x="-0.09" y="-0.09" width="173.18" height="157.18" rx="4.09" fill="none" stroke="#ff0000" stroke-width="0.15"/>
<circle cx="9.625" cy="9.5" r="1.61" fill="none" stroke="#ff0000" stroke-width="0.15"/>
<circle cx="81.875" cy="9.5" r="1.61" fill="none" stroke="#ff0000" stroke-width="0.15"/>
<circle cx="9.625" cy="106.5" r="1.61" fill="none" stroke="#ff0000" stroke-width="0.15"/>
<circle cx="81.875" cy="106.5" r="1.61" fill="none" stroke="#ff0000" stroke-width="0.15"/>
<circle cx="91.125" cy="9.5" r="1.61" fill="none" stroke="#ff0000" stroke-width="0.15"/>
<circle cx="163.375" cy="9.5" r="1.61" fill="none" stroke="#ff0000" stroke-width="0.15"/>
<circle cx="91.125" cy="106.5" r="1.61" fill="none" stroke="#ff0000" stroke-width="0.15"/>
<circle cx="163.375" cy="106.5" r="1.61" fill="none" stroke="#ff0000" stroke-width="0.15"/>
<circle cx="100" cy="120" r="1.31" fill="none" stroke="#ff0000" stroke-width="0.15"/>
<circle cx="100" cy="143" r="1.31" fill="none" stroke="#ff0000" stroke-width="0.15"/>
<circle cx="158" cy="120" r="1.31" fill="none" stroke="#ff0000" stroke-width="0.15"/>
<circle cx="158" cy="143" r="1.31" fill="none" stroke="#ff0000" stroke-width="0.15"/>
<rect x="42.94" y="-0.06" width="12.12" height="3.62" fill="none" stroke="#ff0000" stroke-width="0.15"/>
<rect x="117.94" y="-0.06" width="12.12" height="3.62" fill="none" stroke="#ff0000" stroke-width="0.15"/>
<rect x="42.94" y="153.44" width="12.12" height="3.62" fill="none" stroke="#ff0000" stroke-width="0.15"/>
<rect x="117.94" y="153.44" width="12.12" height="3.62" fill="none" stroke="#ff0000" stroke-width="0.15"/>
<rect x="-0.06" y="38.94" width="3.62" height="12.12" fill="none" stroke="#ff0000" stroke-width="0.15"/>
<rect x="-0.06" y="105.94" width="3.62" height="12.12" fill="none" stroke="#ff0000" stroke-width="0.15"/>
<rect x="169.44" y="38.94" width="3.62" height="12.12" fill="none" stroke="#ff0000" stroke-width="0.15"/>
<rect x="169.44" y="105.94" width="3.62" height="12.12" fill="none" stroke="#ff0000" stroke-width="0.15"/>
</g>
<g transform="translate(178,0) translate(173,0) scale(-1,1)">
<rect x="-0.09" y="-0.09" width="173.18" height="157.18" rx="4.09" fill="none" stroke="#ff0000" stroke-width="0.15"/>
<circle cx="22" cy="35" r="16.06" fill="none" stroke="#ff0000" stroke-width="0.15"/>
<circle cx="151" cy="35" r="16.06" fill="none" stroke="#ff0000" stroke-width="0.15"/>
<circle cx="34" cy="92.5" r="16.06" fill="none" stroke="#ff0000" stroke-width="0.15"/>
<circle cx="139" cy="92.5" r="16.06" fill="none" stroke="#ff0000" stroke-width="0.15"/>
<circle cx="9.625" cy="9.5" r="3.16" fill="none" stroke="#ff0000" stroke-width="0.15"/>
<circle cx="81.875" cy="9.5" r="3.16" fill="none" stroke="#ff0000" stroke-width="0.15"/>
<circle cx="9.625" cy="106.5" r="3.16" fill="none" stroke="#ff0000" stroke-width="0.15"/>
<circle cx="81.875" cy="106.5" r="3.16" fill="none" stroke="#ff0000" stroke-width="0.15"/>
<circle cx="91.125" cy="9.5" r="3.16" fill="none" stroke="#ff0000" stroke-width="0.15"/>
<circle cx="163.375" cy="9.5" r="3.16" fill="none" stroke="#ff0000" stroke-width="0.15"/>
<circle cx="91.125" cy="106.5" r="3.16" fill="none" stroke="#ff0000" stroke-width="0.15"/>
<circle cx="163.375" cy="106.5" r="3.16" fill="none" stroke="#ff0000" stroke-width="0.15"/>
<circle cx="100" cy="120" r="3.16" fill="none" stroke="#ff0000" stroke-width="0.15"/>
<circle cx="100" cy="143" r="3.16" fill="none" stroke="#ff0000" stroke-width="0.15"/>
<circle cx="158" cy="120" r="3.16" fill="none" stroke="#ff0000" stroke-width="0.15"/>
<circle cx="158" cy="143" r="3.16" fill="none" stroke="#ff0000" stroke-width="0.15"/>
</g>
<g transform="translate(0,162)">
<polygon points="0,0 173,0 173,11.167 169.5,11.167 169.5,22.333 173,22.333 173,33.5 130,33.5 130,37 118,37 118,33.5 55,33.5 55,37 43,37 43,33.5 0,33.5 0,22.333 3.5,22.333 3.5,11.167 0,11.167" fill="none" stroke="#ff0000" stroke-width="0.15"/>
</g>
<g transform="translate(178,162)">
<polygon points="0,0 100.5,0 100.5,12 115,12 115,0 173,0 173,11.167 169.5,11.167 169.5,22.333 173,22.333 173,33.5 130,33.5 130,37 118,37 118,33.5 55,33.5 55,37 43,37 43,33.5 0,33.5 0,22.333 3.5,22.333 3.5,11.167 0,11.167" fill="none" stroke="#ff0000" stroke-width="0.15"/>
<rect x="137.565" y="5.215" width="13.87" height="2.97" fill="none" stroke="#ff0000" stroke-width="0.15"/>
</g>
<g transform="translate(0,204)">
<polygon points="3.5,0 153.5,0 153.5,11.167 157,11.167 157,22.333 153.5,22.333 153.5,33.5 118,33.5 118,37 106,37 106,33.5 51,33.5 51,37 39,37 39,33.5 3.5,33.5 3.5,22.333 0,22.333 0,11.167 3.5,11.167" fill="none" stroke="#ff0000" stroke-width="0.15"/>
</g>
<g transform="translate(162,204)">
<polygon points="3.5,0 153.5,0 153.5,11.167 157,11.167 157,22.333 153.5,22.333 153.5,33.5 118,33.5 118,37 106,37 106,33.5 51,33.5 51,37 39,37 39,33.5 3.5,33.5 3.5,22.333 0,22.333 0,11.167 3.5,11.167" fill="none" stroke="#ff0000" stroke-width="0.15"/>
<rect x="124.44" y="5.39" width="2.62" height="2.62" fill="none" stroke="#ff0000" stroke-width="0.15"/>
</g>
<g transform="translate(324,204)">
<rect x="-0.09" y="-0.09" width="62.18" height="4.18" fill="none" stroke="#ff0000" stroke-width="0.15"/>
<rect x="-0.09" y="5.91" width="62.18" height="4.18" fill="none" stroke="#ff0000" stroke-width="0.15"/>
<rect x="-0.09" y="11.91" width="33.18" height="4.18" fill="none" stroke="#ff0000" stroke-width="0.15"/>
</g>
<g transform="translate(391.18,204)">
<rect x="-0.09" y="-0.09" width="10.18" height="14.08" fill="none" stroke="#ff0000" stroke-width="0.15"/>
</g>
<g transform="translate(406.36,204)">
<rect x="-0.09" y="-0.09" width="11.18" height="2.83" fill="none" stroke="#ff0000" stroke-width="0.15"/>
</g>
</svg>
