<svg xmlns="http://www.w3.org/2000/svg" width="495mm" height="279mm" viewBox="0 0 495 279">
<g transform="translate(0,0) translate(172.4,0) scale(-1,1)">
<rect x="-0.09" y="-0.09" width="172.58" height="154.58" rx="4.09" fill="none" stroke="#ff0000" stroke-width="0.15"/>
<circle cx="8.95" cy="8.95" r="1.61" fill="none" stroke="#ff0000" stroke-width="0.15"/>
<circle cx="81.95" cy="8.95" r="1.61" fill="none" stroke="#ff0000" stroke-width="0.15"/>
<circle cx="8.95" cy="106.45" r="1.61" fill="none" stroke="#ff0000" stroke-width="0.15"/>
<circle cx="81.95" cy="106.45" r="1.61" fill="none" stroke="#ff0000" stroke-width="0.15"/>
<circle cx="90.45" cy="8.95" r="1.61" fill="none" stroke="#ff0000" stroke-width="0.15"/>
<circle cx="163.45" cy="8.95" r="1.61" fill="none" stroke="#ff0000" stroke-width="0.15"/>
<circle cx="90.45" cy="106.45" r="1.61" fill="none" stroke="#ff0000" stroke-width="0.15"/>
<circle cx="163.45" cy="106.45" r="1.61" fill="none" stroke="#ff0000" stroke-width="0.15"/>
<circle cx="14.7" cy="118.7" r="1.31" fill="none" stroke="#ff0000" stroke-width="0.15"/>
<circle cx="14.7" cy="141.7" r="1.31" fill="none" stroke="#ff0000" stroke-width="0.15"/>
<circle cx="72.7" cy="118.7" r="1.31" fill="none" stroke="#ff0000" stroke-width="0.15"/>
<circle cx="72.7" cy="141.7" r="1.31" fill="none" stroke="#ff0000" stroke-width="0.15"/>
</g>
<g transform="translate(177.4,0)">
<polygon points="0,0 172.4,0 172.4,22 129.7,22 129.7,25.2 117.7,25.2 117.7,22 54.7,22 54.7,25.2 42.7,25.2 42.7,22 0,22" fill="none" stroke="#ff0000" stroke-width="0.15"/>
</g>
<g transform="translate(0,159.4)">
<polygon points="0,0 172.4,0 172.4,22 129.7,22 129.7,25.2 117.7,25.2 117.7,22 54.7,22 54.7,25.2 42.7,25.2 42.7,22 0,22" fill="none" stroke="#ff0000" stroke-width="0.15"/>
<rect x="38.29" y="11.34" width="10.82" height="5.32" rx="1.41" fill="none" stroke="#ff0000" stroke-width="0.15"/>
</g>
<g transform="translate(177.4,159.4)">
<polygon points="0,0 148,0 148,22 113,22 113,25.2 101,25.2 101,22 47,22 47,25.2 35,25.2 35,22 0,22" fill="none" stroke="#ff0000" stroke-width="0.15"/>
</g>
<g transform="translate(330.4,159.4)">
<polygon points="0,0 148,0 148,22 113,22 113,25.2 101,25.2 101,22 47,22 47,25.2 35,25.2 35,22 0,22" fill="none" stroke="#ff0000" stroke-width="0.15"/>
</g>
</svg>
