<svg xmlns="http://www.w3.org/2000/svg" width="495mm" height="279mm" viewBox="0 0 495 279">
<g transform="translate(0,0) translate(173,0) scale(-1,1)">
<rect x="-0.09" y="-0.09" width="173.18" height="157.18" rx="4.09" fill="none" stroke="#ff0000" stroke-width="0.15"/>
<circle cx="9.625" cy="9.5" r="1.61" fill="none" stroke="#ff0000" stroke-width="0.15"/>
<circle cx="81.875" cy="9.5" r="1.61" fill="none" stroke="#ff0000" stroke-width="0.15"/>
<circle cx="9.625" cy="106.5" r="1.61" fill="none" stroke="#ff0000" stroke-width="0.15"/>
<circle cx="81.875" cy="106.5" r="1.61" fill="none" stroke="#ff0000" stroke-width="0.15"/>
<circle cx="91.125" cy="9.5" r="1.61" fill="none" stroke="#ff0000" stroke-width="0.15"/>
<circle cx="163.375" cy="9.5" r="1.61" fill="none" stroke="#ff0000" stroke-width="0.15"/>
<circle cx="91.125" cy="106.5" r="1.61" fill="none" stroke="#ff0000" stroke-width="0.15"/>
<circle cx="163.375" cy="106.5" r="1.61" fill="none" stroke="#ff0000" stroke-width="0.15"/>
<circle cx="100" cy="120" r="1.31" fill="none" stroke="#ff0000" stroke-width="0.15"/>
<circle cx="100" cy="143" r="1.31" fill="none" stroke="#ff0000" stroke-width="0.15"/>
<circle cx="158" cy="120" r="1.31" fill="none" stroke="#ff0000" stroke-width="0.15"/>
<circle cx="158" cy="143" r="1.31" fill="none" stroke="#ff0000" stroke-width="0.15"/>
<rect x="42.94" y="-0.06" width="12.12" height="3.62" fill="none" stroke="#ff0000" stroke-width="0.15"/>
<rect x="117.94" y="-0.06" width="12.12" height="3.62" fill="none" stroke="#ff0000" stroke-width="0.15"/>
<rect x="42.94" y="153.44" width="12.12" height="3.62" fill="none" stroke="#ff0000" stroke-width="0.15"/>
<rect x="117.94" y="153.44" width="12.12" height="3.62" fill="none" stroke="#ff0000" stroke-width="0.15"/>
<rect x="-0.06" y="38.94" width="3.62" height="12.12" fill="none" stroke="#ff0000" stroke-width="0.15"/>
<rect x="-0.06" y="105.94" width="3.62" height="12.12" fill="none" stroke="#ff0000" stroke-width="0.15"/>
<rect x="169.44" y="38.94" width="3.62" height="12.12" fill="none" stroke="#ff0000" stroke-width="0.15"/>
<rect x="169.44" y="105.94" width="3.62" height="12.12" fill="none" stroke="#ff0000" stroke-width="0.15"/>
</g>
</svg>
