<svg xmlns="http://www.w3.org/2000/svg" width="495mm" height="279mm" viewBox="0 0 495 279">
<g transform="translate(0,0) translate(172.4,0) scale(-1,1)">
<rect x="-0.09" y="-0.09" width="172.58" height="156.58" rx="4.09" fill="none" stroke="#ff0000" stroke-width="0.15"/>
<circle cx="8.95" cy="8.95" r="1.61" fill="none" stroke="#ff0000" stroke-width="0.15"/>
<circle cx="81.95" cy="8.95" r="1.61" fill="none" stroke="#ff0000" stroke-width="0.15"/>
<circle cx="8.95" cy="106.45" r="1.61" fill="none" stroke="#ff0000" stroke-width="0.15"/>
<circle cx="81.95" cy="106.45" r="1.61" fill="none" stroke="#ff0000" stroke-width="0.15"/>
<circle cx="90.45" cy="8.95" r="1.61" fill="none" stroke="#ff0000" stroke-width="0.15"/>
<circle cx="163.45" cy="8.95" r="1.61" fill="none" stroke="#ff0000" stroke-width="0.15"/>
<circle cx="90.45" cy="106.45" r="1.61" fill="none" stroke="#ff0000" stroke-width="0.15"/>
<circle cx="163.45" cy="106.45" r="1.61" fill="none" stroke="#ff0000" stroke-width="0.15"/>
<circle cx="14.7" cy="119.7" r="1.31" fill="none" stroke="#ff0000" stroke-width="0.15"/>
<circle cx="14.7" cy="142.7" r="1.31" fill="none" stroke="#ff0000" stroke-width="0.15"/>
<circle cx="72.7" cy="119.7" r="1.31" fill="none" stroke="#ff0000" stroke-width="0.15"/>
<circle cx="72.7" cy="142.7" r="1.31" fill="none" stroke="#ff0000" stroke-width="0.15"/>
</g>
<g transform="translate(177.4,0)">
<polygon points="0,0 172.4,0 172.4,24 129.7,24 129.7,27.2 117.7,27.2 117.7,24 54.7,24 54.7,27.2 42.7,27.2 42.7,24 0,24" fill="none" stroke="#ff0000" stroke-width="0.15"/>
</g>
<g transform="translate(0,161.4)">
<polygon points="0,0 172.4,0 172.4,24 129.7,24 129.7,27.2 117.7,27.2 117.7,24 54.7,24 54.7,27.2 42.7,27.2 42.7,24 0,24" fill="none" stroke="#ff0000" stroke-width="0.15"/>
<rect x="38.29" y="7.34" width="10.82" height="5.32" rx="1.41" fill="none" stroke="#ff0000" stroke-width="0.15"/>
<rect x="9.79" y="8.59" width="23.82" height="2.82" rx="1.41" fill="none" stroke="#ff0000" stroke-width="0.15"/>
<circle cx="61.7" cy="10" r="0.81" fill="none" stroke="#ff0000" stroke-width="0.15"/>
</g>
<g transform="translate(177.4,161.4)">
<polygon points="0,0 150,0 150,24 114.5,24 114.5,27.2 102.5,27.2 102.5,24 47.5,24 47.5,27.2 35.5,27.2 35.5,24 0,24" fill="none" stroke="#ff0000" stroke-width="0.15"/>
</g>
<g transform="translate(332.4,161.4)">
<polygon points="0,0 150,0 150,24 114.5,24 114.5,27.2 102.5,27.2 102.5,24 47.5,24 47.5,27.2 35.5,27.2 35.5,24 0,24" fill="none" stroke="#ff0000" stroke-width="0.15"/>
</g>
</svg>
