<svg xmlns="http://www.w3.org/2000/svg" width="495mm" height="279mm" viewBox="0 0 495 279">
<g transform="translate(0,0) translate(173,0) scale(-1,1)">
<rect x="-0.135" y="-0.135" width="173.27" height="157.27" rx="4.135" fill="none" stroke="#ff0000" stroke-width="0.15"/>
<circle cx="9.625" cy="9.5" r="1.565" fill="none" stroke="#ff0000" stroke-width="0.15"/>
<circle cx="81.875" cy="9.5" r="1.565" fill="none" stroke="#ff0000" stroke-width="0.15"/>
<circle cx="9.625" cy="106.5" r="1.565" fill="none" stroke="#ff0000" stroke-width="0.15"/>
<circle cx="81.875" cy="106.5" r="1.565" fill="none" stroke="#ff0000" stroke-width="0.15"/>
<circle cx="91.125" cy="9.5" r="1.565" fill="none" stroke="#ff0000" stroke-width="0.15"/>
<circle cx="163.375" cy="9.5" r="1.565" fill="none" stroke="#ff0000" stroke-width="0.15"/>
<circle cx="91.125" cy="106.5" r="1.565" fill="none" stroke="#ff0000" stroke-width="0.15"/>
<circle cx="163.375" cy="106.5" r="1.565" fill="none" stroke="#ff0000" stroke-width="0.15"/>
<circle cx="100" cy="120" r="1.265" fill="none" stroke="#ff0000" stroke-width="0.15"/>
<circle cx="100" cy="143" r="1.265" fill="none" stroke="#ff0000" stroke-width="0.15"/>
<circle cx="158" cy="120" r="1.265" fill="none" stroke="#ff0000" stroke-width="0.15"/>
<circle cx="158" cy="143" r="1.265" fill="none" stroke="#ff0000" stroke-width="0.15"/>
<rect x="42.985" y="-0.015" width="12.03" height="3.53" fill="none" stroke="#ff0000" stroke-width="0.15"/>
<rect x="117.985" y="-0.015" width="12.03" height="3.53" fill="none" stroke="#ff0000" stroke-width="0.15"/>
<rect x="42.985" y="153.485" width="12.03" height="3.53" fill="none" stroke="#ff0000" stroke-width="0.15"/>
<rect x="117.985" y="153.485" width="12.03" height="3.53" fill="none" stroke="#ff0000" stroke-width="0.15"/>
<rect x="-0.015" y="38.985" width="3.53" height="12.03" fill="none" stroke="#ff0000" stroke-width="0.15"/>
<rect x="-0.015" y="105.985" width="3.53" height="12.03" fill="none" stroke="#ff0000" stroke-width="0.15"/>
<rect x="169.485" y="38.985" width="3.53" height="12.03" fill="none" stroke="#ff0000" stroke-width="0.15"/>
<rect x="169.485" y="105.985" width="3.53" height="12.03" fill="none" stroke="#ff0000" stroke-width="0.15"/>
</g>
<g transform="translate(178,0) translate(173,0) scale(-1,1)">
<rect x="-0.135" y="-0.135" width="173.27" height="157.27" rx="4.135" fill="none" stroke="#ff0000" stroke-width="0.15"/>
<circle cx="22" cy="35" r="16.015" fill="none" stroke="#ff0000" stroke-width="0.15"/>
<circle cx="151" cy="35" r="16.015" fill="none" stroke="#ff0000" stroke-width="0.15"/>
<circle cx="34" cy="92.5" r="16.015" fill="none" stroke="#ff0000" stroke-width="0.15"/>
<circle cx="139" cy="92.5" r="16.015" fill="none" stroke="#ff0000" stroke-width="0.15"/>
<circle cx="9.625" cy="9.5" r="3.115" fill="none" stroke="#ff0000" stroke-width="0.15"/>
<circle cx="81.875" cy="9.5" r="3.115" fill="none" stroke="#ff0000" stroke-width="0.15"/>
<circle cx="9.625" cy="106.5" r="3.115" fill="none" stroke="#ff0000" stroke-width="0.15"/>
<circle cx="81.875" cy="106.5" r="3.115" fill="none" stroke="#ff0000" stroke-width="0.15"/>
<circle cx="91.125" cy="9.5" r="3.115" fill="none" stroke="#ff0000" stroke-width="0.15"/>
<circle cx="163.375" cy="9.5" r="3.115" fill="none" stroke="#ff0000" stroke-width="0.15"/>
<circle cx="91.125" cy="106.5" r="3.115" fill="none" stroke="#ff0000" stroke-width="0.15"/>
<circle cx="163.375" cy="106.5" r="3.115" fill="none" stroke="#ff0000" stroke-width="0.15"/>
<circle cx="100" cy="120" r="3.115" fill="none" stroke="#ff0000" stroke-width="0.15"/>
<circle cx="100" cy="143" r="3.115" fill="none" stroke="#ff0000" stroke-width="0.15"/>
<circle cx="158" cy="120" r="3.115" fill="none" stroke="#ff0000" stroke-width="0.15"/>
<circle cx="158" cy="143" r="3.115" fill="none" stroke="#ff0000" stroke-width="0.15"/>
</g>
<g transform="translate(0,162)">
<polygon points="0,0 173,0 173,11.5 169.5,11.5 169.5,23 173,23 173,34.5 130,34.5 130,38 118,38 118,34.5 55,34.5 55,38 43,38 43,34.5 0,34.5 0,23 3.5,23 3.5,11.5 0,11.5" fill="none" stroke="#ff0000" stroke-width="0.15"/>
</g>
<g transform="translate(178,162)">
<polygon points="0,0 173,0 173,11.5 169.5,11.5 169.5,23 173,23 173,34.5 130,34.5 130,38 118,38 118,34.5 55,34.5 55,38 43,38 43,34.5 0,34.5 0,23 3.5,23 3.5,11.5 0,11.5" fill="none" stroke="#ff0000" stroke-width="0.15"/>
<rect x="101.635" y="4.335" width="14.23" height="8.73" rx="1.365" fill="none" stroke="#ff0000" stroke-width="0.15"/>
<rect x="139.11" y="7.31" width="10.78" height="2.78" fill="none" stroke="#ff0000" stroke-width="0.15"/>
</g>
<g transform="translate(0,205)">
<polygon points="3.5,0 153.5,0 153.5,11.5 157,11.5 157,23 153.5,23 153.5,34.5 118,34.5 118,38 106,38 106,34.5 51,34.5 51,38 39,38 39,34.5 3.5,34.5 3.5,23 0,23 0,11.5 3.5,11.5" fill="none" stroke="#ff0000" stroke-width="0.15"/>
</g>
<g transform="translate(162,205)">
<polygon points="3.5,0 153.5,0 153.5,11.5 157,11.5 157,23 153.5,23 153.5,34.5 118,34.5 118,38 106,38 106,34.5 51,34.5 51,38 39,38 39,34.5 3.5,34.5 3.5,23 0,23 0,11.5 3.5,11.5" fill="none" stroke="#ff0000" stroke-width="0.15"/>
<rect x="124.485" y="7.435" width="2.53" height="2.53" fill="none" stroke="#ff0000" stroke-width="0.15"/>
</g>
<g transform="translate(324,205)">
<rect x="-0.135" y="-0.135" width="62.27" height="4.27" fill="none" stroke="#ff0000" stroke-width="0.15"/>
<rect x="-0.135" y="5.865" width="62.27" height="4.27" fill="none" stroke="#ff0000" stroke-width="0.15"/>
<rect x="-0.135" y="11.865" width="33.27" height="4.27" fill="none" stroke="#ff0000" stroke-width="0.15"/>
</g>
<g transform="translate(391.27,205)">
<rect x="-0.135" y="-0.135" width="10.27" height="11.27" fill="none" stroke="#ff0000" stroke-width="0.15"/>
</g>
<g transform="translate(406.54,205)">
<rect x="-0.135" y="-0.135" width="11.27" height="2.92" fill="none" stroke="#ff0000" stroke-width="0.15"/>
</g>
</svg>
